<svg xmlns="http://www.w3.org/2000/svg" width="1024" height="1024" viewBox="0 0 1024 1024" fill="none">
  <defs>
    <linearGradient id="bg" x1="0" y1="65" x2="0" y2="958">
      <stop offset="0%" stop-color="rgb(45,108,206)"/>
      <stop offset="100%" stop-color="rgb(47,109,206)"/>
    </linearGradient>
  </defs>

  <rect x="19" y="65" width="985" height="893" rx="211" ry="211" fill="url(#bg)"/>
  <g fill="#FFFFFF">
    <path d="M 450.00 212.00 L 493.00 311.00 L 671.00 314.00 L 730.00 336.00 L 769.00 367.00 L 792.00 396.00 L 818.00 465.00 L 822.00 518.00 L 811.00 580.00 L 789.00 624.00 L 759.00 656.00 L 674.00 695.00 L 624.00 693.00 L 571.00 580.00 L 342.00 580.00 L 299.00 681.00 L 512.00 681.00 L 563.00 793.00 L 696.00 790.00 L 798.00 754.00 L 875.00 679.00 L 914.00 576.00 L 913.00 447.00 L 868.00 336.00 L 799.00 264.00 L 714.00 224.00 L 639.00 212.00 Z"/><path d="M 399.00 212.00 L 353.00 213.00 L 97.00 793.00 L 202.00 793.00 L 374.00 380.00 L 381.00 385.00 L 451.00 543.00 L 552.00 542.00 Z"/>
  </g>
</svg>
